# WaveFront *.obj file (generated by Cinema 4D)

mtllib ./stretch.mtl

v -41.07497024536133 125.35852813720703 -62.87366485595703
v -41.07497024536133 297.94073486328125 -62.87366485595703
v -56.09837341308594 125.35852813720703 -62.87366485595703
v -56.09837341308594 297.94073486328125 -62.87366485595703
v -56.09837341308594 125.35852813720703 -53.86249542236328
v -56.09837341308594 297.94073486328125 -53.86249542236328
v -41.07497024536133 125.35852813720703 -53.86249542236328
v -41.07497024536133 297.94073486328125 -53.86249542236328
v -46.70306015014648 297.94073486328125 -62.87366485595703
v -46.70306015014648 297.94073486328125 -53.86249542236328
v -46.70306015014648 125.35852813720703 -53.86249542236328
v -46.70306015014648 125.35852813720703 -62.87366485595703
v -45.17883682250977 297.94073486328125 -62.87366485595703
v -45.17883682250977 125.35852813720703 -62.87366485595703
v -45.17883682250977 125.35852813720703 -53.86249542236328
v -45.17883682250977 297.94073486328125 -53.86249542236328
v -56.09837341308594 297.94073486328125 -60.23776245117188
v -56.09837341308594 125.35852813720703 -60.23776245117188
v -46.70306015014648 125.35852813720703 -60.23776245117188
v -45.17883682250977 125.35852813720703 -60.23776245117188
v -41.07497024536133 125.35852813720703 -60.23776245117188
v -41.07497024536133 297.94073486328125 -60.23776245117188
v -45.17883682250977 297.94073486328125 -60.23776245117188
v -46.70306015014648 297.94073486328125 -60.23776245117188
v -56.09837341308594 297.94073486328125 -58.65252304077148
v -56.09837341308594 125.35852813720703 -58.65252304077148
v -46.70306015014648 125.35852813720703 -58.65252304077148
v -45.17883682250977 125.35852813720703 -58.65252304077148
v -41.07497024536133 125.35852813720703 -58.65252304077148
v -41.07497024536133 297.94073486328125 -58.65252304077148
v -45.17883682250977 297.94073486328125 -58.65252304077148
v -46.70306015014648 297.94073486328125 -58.65252304077148
v -46.70306015014648 297.94073486328125 -61.93254470825195
v -46.70306015014648 125.35852813720703 -61.93254470825195
v -45.17883682250977 297.94073486328125 -61.93254470825195
v -45.17883682250977 125.35852813720703 -61.93254470825195
v -57.3133659362793 297.94073486328125 -60.23776245117188
v -57.3133659362793 125.35852813720703 -60.23776245117188
v -57.3133659362793 297.94073486328125 -58.65252304077148
v -57.3133659362793 125.35852813720703 -58.65252304077148
v -56.09837341308594 125.35852813720703 59.05147552490234
v -56.09837341308594 297.94073486328125 59.05147552490234
v -41.07497024536133 125.35852813720703 59.05147552490234
v -41.07497024536133 297.94073486328125 59.05147552490234
v -41.07497024536133 125.35852813720703 50.04030609130859
v -41.07497024536133 297.94073486328125 50.04030609130859
v -56.09837341308594 125.35852813720703 50.04030609130859
v -56.09837341308594 297.94073486328125 50.04030609130859
v -50.47027969360352 297.94073486328125 59.05147552490234
v -50.47027969360352 297.94073486328125 50.04030609130859
v -50.47027969360352 125.35852813720703 50.04030609130859
v -50.47027969360352 125.35852813720703 59.05147552490234
v -51.99450302124023 297.94073486328125 59.05147552490234
v -51.99450302124023 125.35852813720703 59.05147552490234
v -51.99450302124023 125.35852813720703 50.04030609130859
v -51.99450302124023 297.94073486328125 50.04030609130859
v -41.07497024536133 297.94073486328125 56.41557312011719
v -41.07497024536133 125.35852813720703 56.41557312011719
v -50.47027969360352 125.35852813720703 56.41557312011719
v -51.99450302124023 125.35852813720703 56.41557312011719
v -56.09837341308594 125.35852813720703 56.41557312011719
v -56.09837341308594 297.94073486328125 56.41557312011719
v -51.99450302124023 297.94073486328125 56.41557312011719
v -50.47027969360352 297.94073486328125 56.41557312011719
v -41.07497024536133 297.94073486328125 54.8303337097168
v -41.07497024536133 125.35852813720703 54.8303337097168
v -50.47027969360352 125.35852813720703 54.8303337097168
v -51.99450302124023 125.35852813720703 54.8303337097168
v -56.09837341308594 125.35852813720703 54.8303337097168
v -56.09837341308594 297.94073486328125 54.8303337097168
v -51.99450302124023 297.94073486328125 54.8303337097168
v -50.47027969360352 297.94073486328125 54.8303337097168
v -50.47027969360352 297.94073486328125 58.11035537719727
v -50.47027969360352 125.35852813720703 58.11035537719727
v -51.99450302124023 297.94073486328125 58.11035537719727
v -51.99450302124023 125.35852813720703 58.11035537719727
v -39.8599739074707 297.94073486328125 56.41557312011719
v -39.8599739074707 125.35852813720703 56.41557312011719
v -39.8599739074707 297.94073486328125 54.8303337097168
v -39.8599739074707 125.35852813720703 54.8303337097168
# 80 vertices

vn 0 0 -1
vn -1 0 0
vn 0 0 1
vn 1 0 0
vn 0 1 0
vn 0 -1 0
# 6 normals

vt 0.37462157011032 1 0
vt 1 1 0
vt 1 0 0
vt 0.37462157011032 0 0
vt 0 0 0
vt 0 1 0
vt 0.29251492023468 1 0
vt 0.29251492023468 0 0
vt 0.62537842988968 1 0
vt 0.62537842988968 0 0
vt 0.70748507976532 1 0
vt 0.70748507976532 0 0
vt 1 0.29251492023468 0
vt 0.37462157011032 0.29251492023468 0
vt 1 0.70748507976532 0
vt 0.37462157011032 0.70748507976532 0
vt 0.27316504716873 0 0
vt 0 0.29251492023468 0
vt 0.27316504716873 0.29251492023468 0
vt 0.72683495283127 1 0
vt 0.72683495283127 0 0
vt 0 0.70748507976532 0
vt 0.27316504716873 1 0
vt 0.27316504716873 0.70748507976532 0
vt 0.46843415498734 1 0
vt 0.46843415498734 0 0
vt 1 0.53156584501266 0
vt 0.37462157011032 0.53156584501266 0
vt 0.27316504716873 0.53156584501266 0
vt 0 0.53156584501266 0
vt 0.53156584501266 0 0
vt 0.53156584501266 1 0
vt 0 0.46843421459198 0
vt 0.27316504716873 0.46843421459198 0
vt 0.37462157011032 0.46843421459198 0
vt 1 0.46843421459198 0
# 36 texture coordinates

o 叉车
usemtl 材质
f 12/4/1 3/3/1 4/2/1 9/1/1
f 18/8/2 17/7/2 4/6/2 3/5/2
f 11/10/3 10/9/3 6/6/3 5/5/3
f 21/12/4 1/3/4 2/2/4 22/11/4
f 24/14/5 9/4/5 4/3/5 17/13/5
f 19/16/6 18/15/6 3/2/6 12/1/6
f 23/19/5 22/18/5 2/5/5 13/17/5
f 15/21/3 7/3/3 8/2/3 16/20/3
f 20/24/6 14/23/6 1/6/6 21/22/6
f 13/23/1 2/6/1 1/5/1 14/17/1
f 36/17/1 34/4/1 33/1/1 35/23/1
f 20/24/6 19/16/6 12/1/6 14/23/6
f 16/20/3 10/9/3 11/10/3 15/21/3
f 23/19/5 13/17/5 9/4/5 24/14/5
f 38/8/2 40/26/2 39/25/2 37/7/2
f 19/16/6 27/28/6 26/27/6 18/15/6
f 20/24/6 28/29/6 27/28/6 19/16/6
f 21/22/6 29/30/6 28/29/6 20/24/6
f 22/11/4 30/32/4 29/31/4 21/12/4
f 23/19/5 31/34/5 30/33/5 22/18/5
f 24/14/5 32/35/5 31/34/5 23/19/5
f 17/13/5 25/36/5 32/35/5 24/14/5
f 26/26/2 5/3/2 6/2/2 25/25/2
f 27/28/6 11/4/6 5/3/6 26/27/6
f 28/29/6 15/17/6 11/4/6 27/28/6
f 29/30/6 7/5/6 15/17/6 28/29/6
f 30/32/4 8/6/4 7/5/4 29/31/4
f 31/34/5 16/23/5 8/6/5 30/33/5
f 32/35/5 10/1/5 16/23/5 31/34/5
f 25/36/5 6/2/5 10/1/5 32/35/5
f 33/1/6 9/1/6 13/23/6 35/23/6
f 34/4/4 12/4/4 9/1/4 33/1/4
f 36/17/5 14/17/5 12/4/5 34/4/5
f 35/23/2 13/23/2 14/17/2 36/17/2
f 39/25/5 25/25/5 17/7/5 37/7/5
f 40/26/3 26/26/3 25/25/3 39/25/3
f 38/8/6 18/8/6 26/26/6 40/26/6
f 37/7/1 17/7/1 18/8/1 38/8/1
f 52/4/3 43/3/3 44/2/3 49/1/3
f 58/8/4 57/7/4 44/6/4 43/5/4
f 51/10/1 50/9/1 46/6/1 45/5/1
f 61/12/2 41/3/2 42/2/2 62/11/2
f 64/14/5 49/4/5 44/3/5 57/13/5
f 59/16/6 58/15/6 43/2/6 52/1/6
f 63/19/5 62/18/5 42/5/5 53/17/5
f 55/21/1 47/3/1 48/2/1 56/20/1
f 60/24/6 54/23/6 41/6/6 61/22/6
f 53/23/3 42/6/3 41/5/3 54/17/3
f 76/17/3 74/4/3 73/1/3 75/23/3
f 60/24/6 59/16/6 52/1/6 54/23/6
f 56/20/1 50/9/1 51/10/1 55/21/1
f 63/19/5 53/17/5 49/4/5 64/14/5
f 78/8/4 80/26/4 79/25/4 77/7/4
f 59/16/6 67/28/6 66/27/6 58/15/6
f 60/24/6 68/29/6 67/28/6 59/16/6
f 61/22/6 69/30/6 68/29/6 60/24/6
f 62/11/2 70/32/2 69/31/2 61/12/2
f 63/19/5 71/34/5 70/33/5 62/18/5
f 64/14/5 72/35/5 71/34/5 63/19/5
f 57/13/5 65/36/5 72/35/5 64/14/5
f 66/26/4 45/3/4 46/2/4 65/25/4
f 67/28/6 51/4/6 45/3/6 66/27/6
f 68/29/6 55/17/6 51/4/6 67/28/6
f 69/30/6 47/5/6 55/17/6 68/29/6
f 70/32/2 48/6/2 47/5/2 69/31/2
f 71/34/5 56/23/5 48/6/5 70/33/5
f 72/35/5 50/1/5 56/23/5 71/34/5
f 65/36/5 46/2/5 50/1/5 72/35/5
f 73/1/6 49/1/6 53/23/6 75/23/6
f 74/4/2 52/4/2 49/1/2 73/1/2
f 76/17/5 54/17/5 52/4/5 74/4/5
f 75/23/4 53/23/4 54/17/4 76/17/4
f 79/25/5 65/25/5 57/7/5 77/7/5
f 80/26/1 66/26/1 65/25/1 79/25/1
f 78/8/6 58/8/6 66/26/6 80/26/6
f 77/7/3 57/7/3 58/8/3 78/8/3

